<?xml version="1.0" encoding="utf-8"?>
<!-- Generator: Adobe Illustrator 15.0.0, SVG Export Plug-In . SVG Version: 6.00 Build 0)  -->
<!DOCTYPE svg PUBLIC "-//W3C//DTD SVG 1.1//EN" "http://www.w3.org/Graphics/SVG/1.1/DTD/svg11.dtd">
<svg version="1.1" id="Layer_1" xmlns="http://www.w3.org/2000/svg" xmlns:xlink="http://www.w3.org/1999/xlink" x="0px" y="0px"
	 width="32px" height="32px" viewBox="0 0 32 32" enable-background="new 0 0 32 32" xml:space="preserve">
<circle fill="#FFFFFF" cx="16" cy="15.906" r="15.906"/>
<path d="M23.574,11.032c0-4.39-3.559-7.949-7.949-7.949c-4.39,0-7.949,3.559-7.949,7.949c0,1.45,0.395,2.804,1.072,3.974H8.739
	l6.885,13.91l6.888-13.91h-0.01C23.182,13.836,23.574,12.482,23.574,11.032z M15.626,15.005c-2.194,0-3.974-1.78-3.974-3.974
	c0-2.195,1.78-3.975,3.974-3.975c2.195,0,3.975,1.78,3.975,3.975C19.601,13.225,17.821,15.005,15.626,15.005z"/>
</svg>
