<?xml version="1.0" encoding="utf-8"?>
<!-- Generator: Adobe Illustrator 15.0.0, SVG Export Plug-In . SVG Version: 6.00 Build 0)  -->
<!DOCTYPE svg PUBLIC "-//W3C//DTD SVG 1.1//EN" "http://www.w3.org/Graphics/SVG/1.1/DTD/svg11.dtd">
<svg version="1.1" id="Layer_1" xmlns="http://www.w3.org/2000/svg" xmlns:xlink="http://www.w3.org/1999/xlink" x="0px" y="0px"
	 width="32px" height="32px" viewBox="0 0 32 32" enable-background="new 0 0 32 32" xml:space="preserve">
<circle fill="#FFFFFF" cx="16" cy="15.906" r="15.906"/>
<path d="M7.001,6.905L7,14.154l5.075,5.076l3.624,3.624l1.45,1.45c0.801,0.801,2.1,0.801,2.899,0l4.351-4.35
	c0.801-0.801,0.8-2.1,0-2.9l-1.451-1.449l-3.624-3.625L14.25,6.905H7.001z M12.8,12.704c-0.801,0.801-2.101,0.801-2.9,0
	c-0.801-0.801-0.8-2.099,0.001-2.9c0.8-0.8,2.099-0.801,2.899,0C13.6,10.605,13.6,11.904,12.8,12.704z"/>
</svg>
