<?xml version="1.0" encoding="utf-8"?>
<!-- Generator: Adobe Illustrator 15.0.0, SVG Export Plug-In . SVG Version: 6.00 Build 0)  -->
<!DOCTYPE svg PUBLIC "-//W3C//DTD SVG 1.1//EN" "http://www.w3.org/Graphics/SVG/1.1/DTD/svg11.dtd">
<svg version="1.1" id="Layer_1" xmlns="http://www.w3.org/2000/svg" xmlns:xlink="http://www.w3.org/1999/xlink" x="0px" y="0px"
	 width="32px" height="32px" viewBox="0 0 32 32" enable-background="new 0 0 32 32" xml:space="preserve">
<circle fill="#FFFFFF" cx="16" cy="15.906" r="15.906"/>
<path d="M18.161,15.905c0,1.192-0.969,2.163-2.162,2.163c-1.194,0-2.163-0.971-2.163-2.163c0-1.194,0.969-2.162,2.163-2.162
	C17.192,13.743,18.161,14.711,18.161,15.905z M28.974,15.905c0,0-5.81,8.649-12.974,8.649c-7.165,0-12.974-8.649-12.974-8.649
	S8.834,7.256,16,7.256C23.164,7.256,28.974,15.905,28.974,15.905z M21.405,15.905c0-2.986-2.421-5.406-5.406-5.406
	c-2.986,0-5.406,2.42-5.406,5.406c0,2.984,2.42,5.405,5.406,5.405C18.984,21.311,21.405,18.89,21.405,15.905z"/>
</svg>
