<?xml version="1.0" encoding="utf-8"?>
<!-- Generator: Adobe Illustrator 15.0.0, SVG Export Plug-In . SVG Version: 6.00 Build 0)  -->
<!DOCTYPE svg PUBLIC "-//W3C//DTD SVG 1.1//EN" "http://www.w3.org/Graphics/SVG/1.1/DTD/svg11.dtd">
<svg version="1.1" id="Layer_1" xmlns="http://www.w3.org/2000/svg" xmlns:xlink="http://www.w3.org/1999/xlink" x="0px" y="0px"
	 width="32px" height="32px" viewBox="0 0 32 32" enable-background="new 0 0 32 32" xml:space="preserve">
<g>
	<path fill="#FFFFFF" d="M21.449,23.777c-1.652,1.158-3.586,1.738-5.562,1.711c-0.261-0.002-0.521-0.016-0.777-0.039
		c-0.105-0.01-0.21-0.025-0.315-0.039c-0.202-0.027-0.403-0.055-0.601-0.092c-0.121-0.023-0.239-0.055-0.359-0.082
		c-0.192-0.045-0.385-0.092-0.573-0.148c-0.091-0.027-0.179-0.059-0.269-0.09c-0.217-0.072-0.433-0.146-0.643-0.234
		c-0.048-0.02-0.094-0.043-0.141-0.064c-0.246-0.107-0.489-0.221-0.724-0.348c-0.01-0.006-0.021-0.012-0.031-0.018
		c-0.796-0.438-1.523-0.982-2.161-1.619c-0.011-0.01-0.021-0.021-0.031-0.033c-0.198-0.199-0.387-0.406-0.567-0.623
		c-0.039-0.047-0.074-0.098-0.112-0.145c-1.3-1.625-2.083-3.682-2.083-5.918H9l-4-6l-4,6h2.5c0,2.629,0.82,5.069,2.213,7.084
		c0.018,0.027,0.029,0.059,0.048,0.086c0.144,0.205,0.304,0.396,0.459,0.592c0.058,0.072,0.112,0.148,0.172,0.221
		c0.229,0.277,0.47,0.537,0.719,0.791c0.023,0.025,0.045,0.051,0.069,0.074c0.836,0.836,1.78,1.541,2.808,2.105
		c0.028,0.016,0.055,0.031,0.083,0.047c0.296,0.158,0.6,0.303,0.91,0.439c0.077,0.033,0.152,0.068,0.229,0.102
		c0.265,0.109,0.535,0.205,0.809,0.297c0.129,0.043,0.257,0.09,0.388,0.129c0.239,0.07,0.483,0.131,0.729,0.188
		c0.164,0.039,0.326,0.08,0.492,0.111c0.068,0.014,0.134,0.035,0.202,0.047c0.232,0.041,0.464,0.062,0.696,0.092
		c0.084,0.01,0.166,0.023,0.25,0.033c0.417,0.041,0.833,0.066,1.248,0.066c2.541,0,5.02-0.775,7.146-2.266
		c0.68-0.477,0.844-1.41,0.369-2.09C23.062,23.465,22.127,23.301,21.449,23.777z"/>
	<path fill="#FFFFFF" d="M28.5,15.996c0-2.622-0.816-5.055-2.201-7.067c-0.02-0.034-0.035-0.069-0.057-0.101
		c-0.172-0.246-0.361-0.475-0.547-0.705c-0.023-0.028-0.043-0.057-0.066-0.084c-1.268-1.539-2.861-2.729-4.666-3.506
		c-0.049-0.022-0.098-0.045-0.148-0.066c-0.287-0.12-0.582-0.225-0.881-0.323c-0.105-0.036-0.211-0.074-0.32-0.107
		c-0.258-0.078-0.521-0.141-0.785-0.203c-0.146-0.034-0.293-0.071-0.441-0.1c-0.072-0.014-0.141-0.036-0.213-0.049
		c-0.199-0.035-0.396-0.05-0.594-0.075c-0.137-0.017-0.271-0.039-0.41-0.052c-0.332-0.031-0.662-0.045-0.992-0.05
		c-0.06,0-0.118-0.009-0.178-0.009c-0.011,0-0.021,0.003-0.032,0.003c-2.539,0.002-5.012,0.769-7.137,2.256
		c-0.679,0.475-0.844,1.41-0.368,2.089c0.474,0.679,1.41,0.844,2.089,0.368c1.641-1.149,3.555-1.731,5.518-1.713
		c0.281,0.002,0.56,0.016,0.835,0.042c0.084,0.008,0.168,0.021,0.252,0.032c0.225,0.028,0.449,0.06,0.67,0.103
		c0.098,0.02,0.193,0.044,0.289,0.066c0.217,0.049,0.432,0.102,0.643,0.166c0.068,0.021,0.133,0.045,0.201,0.067
		c0.24,0.079,0.479,0.164,0.711,0.261c0.025,0.01,0.049,0.021,0.072,0.032c1.396,0.602,2.623,1.527,3.58,2.685
		c0.006,0.007,0.012,0.016,0.018,0.023c1.348,1.639,2.158,3.735,2.158,6.017H23l4,6l4-6H28.5z"/>
</g>
</svg>
