<?xml version="1.0" encoding="utf-8"?>
<!-- Generator: Adobe Illustrator 15.0.0, SVG Export Plug-In . SVG Version: 6.00 Build 0)  -->
<!DOCTYPE svg PUBLIC "-//W3C//DTD SVG 1.1//EN" "http://www.w3.org/Graphics/SVG/1.1/DTD/svg11.dtd">
<svg version="1.1" id="Layer_1" xmlns="http://www.w3.org/2000/svg" xmlns:xlink="http://www.w3.org/1999/xlink" x="0px" y="0px"
	 width="32px" height="32px" viewBox="0 0 32 32" enable-background="new 0 0 32 32" xml:space="preserve">
<path fill="#FFFFFF" d="M32.083,18.717v-5.345l-4.315-0.002c-0.304-1.342-0.834-2.595-1.547-3.727l3.055-3.053l-3.778-3.78
	l-3.055,3.056c-1.13-0.713-2.385-1.243-3.724-1.547V0h-5.348v4.318c-1.341,0.305-2.594,0.834-3.722,1.544L6.591,2.806L2.812,6.59
	l3.055,3.053c-0.711,1.131-1.242,2.383-1.547,3.725L0,13.366v5.349h4.319c0.304,1.341,0.833,2.594,1.544,3.722l-3.056,3.057
	l3.781,3.78l3.055-3.053c1.129,0.71,2.383,1.239,3.723,1.546l-0.001,4.314h5.348v-4.314c1.343-0.305,2.596-0.836,3.727-1.546
	l3.056,3.053l3.779-3.777l-3.055-3.056c0.713-1.13,1.243-2.384,1.547-3.726L32.083,18.717z M21.39,16.042
	c0,2.952-2.395,5.347-5.347,5.347c-2.953,0-5.347-2.396-5.347-5.347c0-2.954,2.394-5.347,5.347-5.347
	C18.995,10.694,21.39,13.088,21.39,16.042z"/>
</svg>
