<?xml version="1.0" encoding="utf-8"?>
<!-- Generator: Adobe Illustrator 15.0.0, SVG Export Plug-In . SVG Version: 6.00 Build 0)  -->
<!DOCTYPE svg PUBLIC "-//W3C//DTD SVG 1.1//EN" "http://www.w3.org/Graphics/SVG/1.1/DTD/svg11.dtd">
<svg version="1.1" id="Layer_1" xmlns="http://www.w3.org/2000/svg" xmlns:xlink="http://www.w3.org/1999/xlink" x="0px" y="0px"
	 width="32px" height="32px" viewBox="0 0 32 32" enable-background="new 0 0 32 32" xml:space="preserve">
<path fill="#FFFFFF" d="M25.827,9.827C25.827,4.399,21.429,0,16,0c-5.427,0-9.827,4.399-9.827,9.827
	c0,1.792,0.488,3.467,1.325,4.913H7.487l8.512,17.197l8.515-17.197h-0.012C25.342,13.294,25.827,11.619,25.827,9.827z
	 M16.001,14.738c-2.713,0-4.913-2.2-4.913-4.913c0-2.713,2.2-4.914,4.913-4.914c2.715,0,4.914,2.2,4.914,4.914
	C20.915,12.538,18.716,14.738,16.001,14.738z"/>
</svg>
