<?xml version="1.0" encoding="utf-8"?>
<!-- Generator: Adobe Illustrator 15.0.0, SVG Export Plug-In . SVG Version: 6.00 Build 0)  -->
<!DOCTYPE svg PUBLIC "-//W3C//DTD SVG 1.1//EN" "http://www.w3.org/Graphics/SVG/1.1/DTD/svg11.dtd">
<svg version="1.1" id="_x31__spread" xmlns="http://www.w3.org/2000/svg" xmlns:xlink="http://www.w3.org/1999/xlink" x="0px"
	 y="0px" width="150px" height="175px" viewBox="0 0 150 175" enable-background="new 0 0 150 175" xml:space="preserve">
<g>
	<path fill="#FFFFFF" d="M98.264,78.443l-0.094-0.094l-3.196-0.703l-1.445-3.755c-0.207-0.561-0.536-1.064-0.934-1.553
		c-2.337-2.917-5.345-4.751-9.046-5.509l-3.389,0.073l-0.045-0.293l-0.094-0.094l-3.389-40.662c-0.542-5.249-3.001-5.696-5.74-5.696
		c0,0-5.54-0.182-5.54,5.805l0.552,56.319c-0.005,0.588-0.027,1.149-0.143,1.709c-0.426,2.558-1.651,4.634-3.669,6.299
		c-0.527,0.517-1.356,0.862-1.835,0.839c-3.241-0.053-5.882-1.278-7.97-3.684c-2.68-2.866-3.997-8.136-5.562-11.643
		c-0.882-1.976-1.487-4.383-2.664-6.245c-2.139-3.383-7.549-6.564-11.368-4.42c-1.249,0.701-2.796,2.884-2.042,4.347
		c1.099,2.131,2.535,4.562,3.158,6.681c0.538,1.828,0.876,3.782,1.165,5.815c0.195,1.378-0.028,4.482,0.749,5.472
		c0.839,1.069,1.232,3.294,1.775,4.462c1.304,2.81,3.009,6.203,3.606,9.269c2.278,5.263,2.658,11.415,5.529,16.738
		c3.327,6.169,6.895,11.939,12.718,16.268c2.132,1.757,3.631,3.875,4.509,6.405l0.213,11.629c8.576-0.076,42.887,0.156,46.576,0.063
		l-0.5-10.028l-0.083-0.139c1.164-2.303,2.271-4.667,3.357-7.038c0.848-1.886,1.496-3.824,1.922-5.816
		c1.195-5.265,2.351-10.565,3.53-15.858c0.188-0.943,0.448-1.892,0.764-2.78c0.958-2.991,0.683-11.663-5.75-13.151
		c-0.12-0.027-0.172-0.161-0.2-0.238c-1.062-3.684-2.64-7.189-4.734-10.422C106.485,83.069,102.613,79.904,98.264,78.443"/>
</g>
<g>
	<g>
		<polygon fill="#FFFFFF" points="49.562,49.328 43.78,44.476 37.384,52.098 34.886,50.003 35.643,60.044 45.664,59.046 
			43.167,56.951 		"/>
	</g>
</g>
<g>
	<g>
		<polygon fill="#FFFFFF" points="59.481,30.906 49.461,31.905 51.959,34 45.562,41.623 51.345,46.476 57.741,38.852 60.238,40.948 
					"/>
	</g>
</g>
</svg>
