<?xml version="1.0" encoding="utf-8"?>
<!-- Generator: Adobe Illustrator 15.0.0, SVG Export Plug-In . SVG Version: 6.00 Build 0)  -->
<!DOCTYPE svg PUBLIC "-//W3C//DTD SVG 1.1//EN" "http://www.w3.org/Graphics/SVG/1.1/DTD/svg11.dtd">
<svg version="1.1" id="Layer_1" xmlns="http://www.w3.org/2000/svg" xmlns:xlink="http://www.w3.org/1999/xlink" x="0px" y="0px"
	 width="77.195px" height="100px" viewBox="0 0 77.195 100" enable-background="new 0 0 77.195 100" xml:space="preserve">
<path fill="#FFFFFF" d="M70.525,10.839H59.484V8.457C59.484,3.793,55.69,0,51.027,0H26.169c-4.663,0-8.457,3.793-8.457,8.457v2.382
	H6.671C2.987,10.839,0,13.826,0,17.51v4.329h4.13v67.679C4.13,95.297,8.833,100,14.613,100h47.97
	c5.779,0,10.482-4.703,10.482-10.482V21.839h4.13V17.51C77.196,13.826,74.208,10.839,70.525,10.839z M23.863,8.457
	c0-1.271,1.034-2.307,2.307-2.307h24.857c1.271,0,2.308,1.035,2.308,2.307v2.382H23.863V8.457z M65.442,89.518
	c0,1.575-1.282,2.857-2.858,2.857H14.613c-1.576,0-2.858-1.281-2.858-2.857V21.839h53.688V89.518z"/>
<rect x="34.786" y="24.958" fill="#FFFFFF" width="7.625" height="64.485"/>
<rect x="51.86" y="24.958" fill="#FFFFFF" width="7.624" height="64.485"/>
<rect x="17.712" y="24.958" fill="#FFFFFF" width="7.625" height="64.485"/>
</svg>
